<svg width="1543" height="400" viewBox="0 0 1543 400" fill="none" xmlns="http://www.w3.org/2000/svg"><path d="M435 127.947H475.23V149.499H476.667C478.391 144.901 480.977 140.878 484.425 137.43C487.299 134.365 491.13 131.587 495.92 129.097C500.709 126.415 506.744 125.074 514.023 125.074H531.265V163.867H509.713C498.793 163.867 490.268 166.836 484.138 172.775C478.199 178.714 475.23 186.76 475.23 196.913V274.499H435V127.947Z" fill="#010314"/><path d="M608.93 274.499H577.32L538.527 127.947H580.194L608.93 240.017H620.424L652.033 127.947H693.7L634.792 329.097H593.125L608.93 274.499Z" fill="#010314"/><path d="M768.357 278.81C757.246 278.81 746.805 276.798 737.035 272.775C727.456 268.752 719.123 263.293 712.035 256.396C704.947 249.308 699.391 241.07 695.368 231.683C691.345 222.105 689.334 211.951 689.334 201.223C689.334 190.495 691.345 180.438 695.368 171.051C699.391 161.472 704.947 153.235 712.035 146.338C719.123 139.25 727.456 133.694 737.035 129.671C746.805 125.648 757.246 123.637 768.357 123.637C779.851 123.637 790.292 125.648 799.679 129.671C809.257 133.694 817.495 139.25 824.391 146.338C831.288 153.426 836.556 161.664 840.196 171.051C844.027 180.438 845.943 190.495 845.943 201.223V209.844H731C731.767 214.442 733.203 218.848 735.311 223.063C737.61 227.277 740.387 231.013 743.644 234.269C747.092 237.335 750.924 239.825 755.138 241.741C759.353 243.465 763.759 244.327 768.357 244.327C774.87 244.327 780.138 243.465 784.161 241.741C788.376 239.825 791.824 237.814 794.506 235.706C797.38 233.216 799.679 230.342 801.403 227.086H844.506C841.441 236.664 836.652 245.285 830.139 252.948C827.265 256.204 823.912 259.365 820.081 262.43C816.25 265.496 811.843 268.273 806.863 270.764C801.882 273.254 796.135 275.17 789.621 276.511C783.299 278.044 776.211 278.81 768.357 278.81ZM802.84 185.419C802.073 181.779 800.732 178.331 798.817 175.074C796.901 171.817 794.41 168.944 791.345 166.453C788.472 163.963 785.023 161.951 781 160.419C777.169 158.886 772.954 158.12 768.357 158.12C758.97 158.12 751.115 160.898 744.793 166.453C738.663 171.817 734.544 178.139 732.437 185.419H802.84Z" fill="#010314"/><path fill-rule="evenodd" clip-rule="evenodd" d="M77.9778 158.081C147.57 222.603 240.743 262.048 343.128 262.048C347.641 262.048 352.135 261.971 356.61 261.819C365.209 242.988 370 222.054 370 200C370 117.71 303.29 51 221 51C153.264 51 96.0855 96.1984 77.9778 158.081Z" fill="black"/><path fill-rule="evenodd" clip-rule="evenodd" d="M221 319.2C155.168 319.2 101.8 265.832 101.8 200C101.8 134.168 155.168 80.8 221 80.8C286.832 80.8 340.2 134.168 340.2 200C340.2 265.832 286.832 319.2 221 319.2ZM221 349C138.71 349 72 282.29 72 200C72 117.71 138.71 51 221 51C303.29 51 370 117.71 370 200C370 282.29 303.29 349 221 349Z" fill="black"/><path d="M959.061 275.375H913V126.042H961.101C975.58 126.042 987.97 129.031 998.271 135.01C1008.57 140.941 1016.47 149.472 1021.96 160.604C1027.45 171.687 1030.19 184.958 1030.19 200.417C1030.19 215.972 1027.42 229.365 1021.88 240.594C1016.35 251.774 1008.28 260.378 997.688 266.406C987.096 272.385 974.22 275.375 959.061 275.375ZM931.074 259.333H957.895C970.236 259.333 980.463 256.951 988.578 252.187C996.692 247.424 1002.74 240.642 1006.72 231.844C1010.71 223.045 1012.7 212.569 1012.7 200.417C1012.7 188.361 1010.73 177.983 1006.8 169.281C1002.86 160.531 996.983 153.823 989.161 149.156C981.338 144.441 971.596 142.083 959.935 142.083H931.074V259.333Z" fill="#FBFBFB"/><path d="M1182.34 200.708C1182.34 216.458 1179.5 230.069 1173.82 241.542C1168.13 253.014 1160.33 261.861 1150.42 268.083C1140.51 274.306 1129.19 277.417 1116.46 277.417C1103.73 277.417 1092.41 274.306 1082.5 268.083C1072.59 261.861 1064.79 253.014 1059.1 241.542C1053.42 230.069 1050.58 216.458 1050.58 200.708C1050.58 184.958 1053.42 171.347 1059.1 159.875C1064.79 148.403 1072.59 139.556 1082.5 133.333C1092.41 127.111 1103.73 124 1116.46 124C1129.19 124 1140.51 127.111 1150.42 133.333C1160.33 139.556 1168.13 148.403 1173.82 159.875C1179.5 171.347 1182.34 184.958 1182.34 200.708ZM1164.85 200.708C1164.85 187.778 1162.69 176.865 1158.37 167.969C1154.09 159.073 1148.28 152.34 1140.95 147.771C1133.66 143.201 1125.5 140.917 1116.46 140.917C1107.42 140.917 1099.24 143.201 1091.9 147.771C1084.61 152.34 1078.81 159.073 1074.48 167.969C1070.21 176.865 1068.07 187.778 1068.07 200.708C1068.07 213.639 1070.21 224.552 1074.48 233.448C1078.81 242.344 1084.61 249.076 1091.9 253.646C1099.24 258.215 1107.42 260.5 1116.46 260.5C1125.5 260.5 1133.66 258.215 1140.95 253.646C1148.28 249.076 1154.09 242.344 1158.37 233.448C1162.69 224.552 1164.85 213.639 1164.85 200.708Z" fill="#FBFBFB"/><path d="M1328.74 172.708H1310.66C1309.6 167.507 1307.72 162.937 1305.05 159C1302.43 155.062 1299.22 151.757 1295.43 149.083C1291.69 146.361 1287.54 144.319 1282.97 142.958C1278.4 141.597 1273.64 140.917 1268.69 140.917C1259.65 140.917 1251.46 143.201 1244.12 147.771C1236.84 152.34 1231.03 159.073 1226.71 167.969C1222.43 176.865 1220.29 187.778 1220.29 200.708C1220.29 213.639 1222.43 224.552 1226.71 233.448C1231.03 242.344 1236.84 249.076 1244.12 253.646C1251.46 258.215 1259.65 260.5 1268.69 260.5C1273.64 260.5 1278.4 259.819 1282.97 258.458C1287.54 257.097 1291.69 255.08 1295.43 252.406C1299.22 249.684 1302.43 246.354 1305.05 242.417C1307.72 238.431 1309.6 233.861 1310.66 228.708H1328.74C1327.38 236.34 1324.9 243.17 1321.31 249.198C1317.71 255.226 1313.24 260.354 1307.9 264.583C1302.55 268.764 1296.55 271.948 1289.89 274.135C1283.29 276.323 1276.22 277.417 1268.69 277.417C1255.96 277.417 1244.63 274.306 1234.72 268.083C1224.81 261.861 1217.01 253.014 1211.33 241.542C1205.64 230.069 1202.8 216.458 1202.8 200.708C1202.8 184.958 1205.64 171.347 1211.33 159.875C1217.01 148.403 1224.81 139.556 1234.72 133.333C1244.63 127.111 1255.96 124 1268.69 124C1276.22 124 1283.29 125.094 1289.89 127.281C1296.55 129.469 1302.55 132.677 1307.9 136.906C1313.24 141.087 1317.71 146.191 1321.31 152.219C1324.9 158.198 1327.38 165.028 1328.74 172.708Z" fill="#FBFBFB"/><path d="M1435.47 163.375C1434.59 155.986 1431.05 150.25 1424.83 146.167C1418.61 142.083 1410.98 140.042 1401.94 140.042C1395.33 140.042 1389.55 141.111 1384.6 143.25C1379.69 145.389 1375.85 148.33 1373.08 152.073C1370.36 155.816 1369 160.069 1369 164.833C1369 168.819 1369.95 172.247 1371.84 175.115C1373.79 177.934 1376.26 180.292 1379.28 182.187C1382.29 184.035 1385.45 185.566 1388.75 186.781C1392.06 187.948 1395.09 188.896 1397.86 189.625L1413.02 193.708C1416.91 194.729 1421.23 196.139 1425.99 197.938C1430.8 199.736 1435.4 202.191 1439.77 205.302C1444.19 208.365 1447.83 212.302 1450.7 217.115C1453.57 221.927 1455 227.833 1455 234.833C1455 242.903 1452.89 250.194 1448.66 256.708C1444.48 263.222 1438.36 268.399 1430.29 272.24C1422.28 276.08 1412.53 278 1401.07 278C1390.38 278 1381.12 276.274 1373.3 272.823C1365.53 269.372 1359.4 264.559 1354.93 258.385C1350.51 252.212 1348.01 245.042 1347.43 236.875H1366.09C1366.57 242.514 1368.47 247.181 1371.77 250.875C1375.12 254.521 1379.35 257.243 1384.45 259.042C1389.6 260.792 1395.14 261.667 1401.07 261.667C1407.97 261.667 1414.16 260.549 1419.65 258.312C1425.14 256.028 1429.49 252.868 1432.7 248.833C1435.91 244.75 1437.51 239.986 1437.51 234.542C1437.51 229.583 1436.12 225.549 1433.35 222.438C1430.58 219.326 1426.94 216.799 1422.42 214.854C1417.9 212.91 1413.02 211.208 1407.77 209.75L1389.41 204.5C1377.75 201.146 1368.51 196.358 1361.71 190.135C1354.91 183.913 1351.51 175.771 1351.51 165.708C1351.51 157.347 1353.77 150.056 1358.29 143.833C1362.85 137.563 1368.98 132.701 1376.65 129.25C1384.38 125.75 1393 124 1402.53 124C1412.15 124 1420.7 125.726 1428.18 129.177C1435.66 132.58 1441.59 137.247 1445.96 143.177C1450.38 149.108 1452.72 155.84 1452.96 163.375H1435.47Z" fill="#FBFBFB"/></svg>