<svg width="32" height="32" viewBox="0 0 32 32" fill="none" xmlns="http://www.w3.org/2000/svg"><rect width="32" height="32" rx="4" fill="#010314"/><path fill-rule="evenodd" clip-rule="evenodd" d="M7.2 16C7.2 20.8601 11.1399 24.8 16 24.8C19.1977 24.8 21.997 23.0945 23.5379 20.5434C17.4412 20.2352 11.8446 18.0309 7.32589 14.5084C7.24311 14.9932 7.2 15.4916 7.2 16ZM26.0115 20.5638C24.2777 24.3611 20.447 27 16 27C9.92487 27 5 22.0751 5 16C5 14.9255 5.15407 13.8869 5.44132 12.9053C6.77813 8.33679 10.9994 5 16 5C21.6954 5 26.3799 9.3285 26.9432 14.8753C26.9808 15.2451 27 15.6203 27 16C27 17.5188 26.6922 18.9657 26.1356 20.2817C26.0955 20.3764 26.0541 20.4705 26.0115 20.5638Z" fill="#71F47B"/></svg>